<?xml version="1.0" encoding="UTF-8" standalone="no"?>
<!-- Created with Inkscape (http://www.inkscape.org/) -->

<svg
   xmlns:dc="http://purl.org/dc/elements/1.1/"
   xmlns:cc="http://creativecommons.org/ns#"
   xmlns:rdf="http://www.w3.org/1999/02/22-rdf-syntax-ns#"
   xmlns:svg="http://www.w3.org/2000/svg"
   xmlns="http://www.w3.org/2000/svg"
   xmlns:sodipodi="http://sodipodi.sourceforge.net/DTD/sodipodi-0.dtd"
   xmlns:inkscape="http://www.inkscape.org/namespaces/inkscape"
   width="500"
   height="500"
   viewBox="0 0 132.29167 132.29167"
   version="1.1"
   id="svg8"
   inkscape:version="0.92.2 (5c3e80d, 2017-08-06)"
   sodipodi:docname="folderIcon.svg">
  <defs
     id="defs2" />
  <sodipodi:namedview
     id="base"
     pagecolor="#ffffff"
     bordercolor="#666666"
     borderopacity="1.0"
     inkscape:pageopacity="0.0"
     inkscape:pageshadow="2"
     inkscape:zoom="1.4"
     inkscape:cx="330.10435"
     inkscape:cy="279.35234"
     inkscape:document-units="mm"
     inkscape:current-layer="layer1"
     showgrid="false"
     units="px"
     width="49px"
     inkscape:window-width="1920"
     inkscape:window-height="1137"
     inkscape:window-x="-8"
     inkscape:window-y="-8"
     inkscape:window-maximized="1" />
  <metadata
     id="metadata5">
    <rdf:RDF>
      <cc:Work
         rdf:about="">
        <dc:format>image/svg+xml</dc:format>
        <dc:type
           rdf:resource="http://purl.org/dc/dcmitype/StillImage" />
        <dc:title></dc:title>
      </cc:Work>
    </rdf:RDF>
  </metadata>
  <g
     inkscape:label="Calque 1"
     inkscape:groupmode="layer"
     id="layer1"
     transform="translate(0,-164.70833)">
    <path
       style="fill:#000000;stroke-width:0.15324876"
       d="m 30.692601,276.37492 c -4.70508,-0.68672 -9.24115,-3.751 -11.95374,-8.07518 -0.64905,-1.03467 -1.58043,-3.29915 -1.92868,-4.68926 -0.35546,-1.41889 -0.39343,-1.7941 -1.15678,-11.43307 -0.71971,-9.08798 -1.01201,-12.66412 -1.15239,-14.09888 -0.0866,-0.88502 -0.22061,-2.57458 -0.29783,-3.7546 -0.0772,-1.18001 -0.24652,-3.45576 -0.37625,-5.05721 -0.37233,-4.59639 -0.82529,-10.17149 -1.07702,-13.25602 -0.12726,-1.55931 -0.33694,-4.21434 -0.46596,-5.90008 -0.12902,-1.68574 -0.30236,-3.78907 -0.38521,-4.67409 -0.4707,-5.02829 0.21405,-8.48296 2.40926,-12.15504 0.85426,-1.42898 2.99921,-3.75112 4.46668,-4.83567 1.98179,-1.46466 4.28349,-2.48391 6.81499,-3.01783 1.53972,-0.32475 18.91312,-0.32281 20.43867,0.002 2.239,0.47712 4.84581,1.59512 6.56141,2.81403 0.42143,0.29942 3.07647,2.83213 5.90008,5.62825 2.82361,2.79611 5.44416,5.278 5.82345,5.51529 1.19768,0.74931 2.37107,1.27487 3.54104,1.58602 1.08486,0.28852 1.89568,0.30556 19.06316,0.40059 19.278539,0.10671 19.252629,0.10561 21.754849,0.92295 5.26853,1.72095 9.30187,5.7896 11.10051,11.19768 0.88144,2.65028 0.96746,5.09804 0.41155,11.71055 -0.32532,3.86961 -0.67921,8.51524 -0.8522,11.18716 -0.0791,1.22216 -0.21642,3.04965 -0.30508,4.0611 -0.21213,2.41973 -0.74695,9.53272 -0.92758,12.33652 -0.0787,1.22216 -0.17858,2.49796 -0.22187,2.8351 -0.0433,0.33715 -0.14887,1.71639 -0.23461,3.06497 -0.29835,4.69279 -1.07515,7.3375 -3.03832,10.34429 -0.74737,1.14466 -3.57037,3.95164 -4.69994,4.67324 -2.20719,1.41003 -4.62573,2.34661 -6.91372,2.67734 -1.31729,0.19042 -70.991239,0.18037 -72.298469,-0.0104 z m 72.047259,-5.74371 c 3.75543,-0.7757 6.90505,-3.48304 8.31973,-7.15143 0.59948,-1.55451 0.73822,-2.85006 1.68634,-15.74658 0.0837,-1.13787 0.25295,-3.37914 0.37621,-4.98059 0.12326,-1.60145 0.32999,-4.35992 0.4594,-6.12995 0.12941,-1.77002 0.37625,-5.01123 0.54854,-7.20269 0.17228,-2.19146 0.37435,-4.91545 0.44904,-6.05333 0.0747,-1.13787 0.18379,-2.73349 0.24243,-3.54583 0.25551,-3.53907 -0.84971,-6.67274 -3.19786,-9.06708 -0.60825,-0.62021 -1.50487,-1.389 -1.9925,-1.70843 -0.93634,-0.61337 -2.70771,-1.35984 -3.91077,-1.64804 -0.49971,-0.1197 -6.362329,-0.20283 -19.186069,-0.27205 -20.92366,-0.11293 -19.06754,0.005 -22.52756,-1.42978 -2.36578,-0.98094 -3.21524,-1.63871 -7.26106,-5.6226 -6.29975,-6.20331 -6.86387,-6.72424 -8.14045,-7.51723 -0.67429,-0.41886 -1.81217,-0.95045 -2.5286,-1.18132 l -1.30262,-0.41975 h -9.04168 -9.04168 l -1.22599,0.43772 c -1.45911,0.52095 -1.7382,0.65966 -2.95917,1.47065 -2.64533,1.75708 -4.42782,4.62753 -4.93225,7.94272 -0.19323,1.26991 -0.12096,3.08897 0.30879,7.77251 0.0773,0.84287 0.24731,2.87725 0.3777,4.52084 0.1304,1.6436 0.30551,3.78142 0.38914,4.75072 0.0836,0.9693 0.21791,2.69335 0.29841,3.83122 0.0805,1.13787 0.28586,3.72394 0.45637,5.74683 0.17052,2.02288 0.41611,5.02272 0.54576,6.66632 0.12965,1.64359 0.33698,4.22966 0.46072,5.74683 0.3004,3.68315 0.94224,11.60017 1.21755,15.01838 0.1222,1.51716 0.26442,3.37913 0.31605,4.1377 0.0516,0.75858 0.1863,1.86197 0.29928,2.45198 0.86979,4.54242 4.252,8.11077 8.65272,9.12893 1.08416,0.25083 3.39261,0.26896 35.91426,0.28197 31.139,0.0125 34.877799,-0.0113 35.929819,-0.22864 z"
       id="path4515"
       class="folderIcon"
       inkscape:connector-curvature="0" />
  </g>
</svg>
