<svg width="500" height="500" version="1.1" viewBox="0 0 132.3 132.3" xmlns="http://www.w3.org/2000/svg">
	<g transform="translate(0 -164.7)">
		<path class="folderIcon" d="m30.69 276.4c-4.705-0.6867-9.241-3.751-11.95-8.075-0.649-1.035-1.58-3.299-1.929-4.689-0.3555-1.419-0.3934-1.794-1.157-11.43-0.7197-9.088-1.012-12.66-1.152-14.1-0.0866-0.885-0.2206-2.575-0.2978-3.755-0.0772-1.18-0.2465-3.456-0.3762-5.057-0.3723-4.596-0.8253-10.17-1.077-13.26-0.1273-1.559-0.3369-4.214-0.466-5.9s-0.3024-3.789-0.3852-4.674c-0.4707-5.028 0.214-8.483 2.409-12.16 0.8543-1.429 2.999-3.751 4.467-4.836 1.982-1.465 4.283-2.484 6.815-3.018 1.54-0.3248 18.91-0.3228 20.44 2e-3 2.239 0.4771 4.846 1.595 6.561 2.814 0.4214 0.2994 3.076 2.832 5.9 5.628 2.824 2.796 5.444 5.278 5.823 5.515 1.198 0.7493 2.371 1.275 3.541 1.586 1.085 0.2885 1.896 0.3056 19.06 0.4006 19.28 0.1067 19.25 0.1056 21.75 0.923 5.269 1.721 9.302 5.79 11.1 11.2 0.8814 2.65 0.9675 5.098 0.4116 11.71-0.3253 3.87-0.6792 8.515-0.8522 11.19-0.0791 1.222-0.2164 3.05-0.3051 4.061-0.2121 2.42-0.747 9.533-0.9276 12.34-0.0787 1.222-0.1786 2.498-0.2219 2.835-0.0433 0.3372-0.1489 1.716-0.2346 3.065-0.2984 4.693-1.075 7.338-3.038 10.34-0.7474 1.145-3.57 3.952-4.7 4.673-2.207 1.41-4.626 2.347-6.914 2.677-1.317 0.1904-70.99 0.1804-72.3-0.0104zm72.05-5.744c3.755-0.7757 6.905-3.483 8.32-7.151 0.5995-1.555 0.7382-2.85 1.686-15.75 0.0837-1.138 0.253-3.379 0.3762-4.981s0.33-4.36 0.4594-6.13c0.1294-1.77 0.3762-5.011 0.5485-7.203 0.1723-2.191 0.3744-4.915 0.449-6.053 0.0747-1.138 0.1838-2.733 0.2424-3.546 0.2555-3.539-0.8497-6.673-3.198-9.067-0.6082-0.6202-1.505-1.389-1.992-1.708-0.9363-0.6134-2.708-1.36-3.911-1.648-0.4997-0.1197-6.362-0.2028-19.19-0.272-20.92-0.1129-19.07 5e-3 -22.53-1.43-2.366-0.9809-3.215-1.639-7.261-5.623-6.3-6.203-6.864-6.724-8.14-7.517-0.6743-0.4189-1.812-0.9504-2.529-1.181l-1.303-0.4198h-18.08l-1.226 0.4377c-1.459 0.521-1.738 0.6597-2.959 1.471-2.645 1.757-4.428 4.628-4.932 7.943-0.1932 1.27-0.121 3.089 0.3088 7.773 0.0773 0.8429 0.2473 2.877 0.3777 4.521 0.1304 1.644 0.3055 3.781 0.3891 4.751 0.0836 0.9693 0.2179 2.693 0.2984 3.831s0.2859 3.724 0.4564 5.747c0.1705 2.023 0.4161 5.023 0.5458 6.666 0.1296 1.644 0.337 4.23 0.4607 5.747 0.3004 3.683 0.9422 11.6 1.218 15.02 0.1222 1.517 0.2644 3.379 0.316 4.138 0.0516 0.7586 0.1863 1.862 0.2993 2.452 0.8698 4.542 4.252 8.111 8.653 9.129 1.084 0.2508 3.393 0.269 35.91 0.282 31.14 0.0125 34.88-0.0113 35.93-0.2286z" stroke-width=".1532"/>
	</g>
</svg>
