<?xml version="1.0" encoding="UTF-8" standalone="no"?>
<!-- Created with Inkscape (http://www.inkscape.org/) -->

<svg
   xmlns:dc="http://purl.org/dc/elements/1.1/"
   xmlns:cc="http://creativecommons.org/ns#"
   xmlns:rdf="http://www.w3.org/1999/02/22-rdf-syntax-ns#"
   xmlns:svg="http://www.w3.org/2000/svg"
   xmlns="http://www.w3.org/2000/svg"
   xmlns:sodipodi="http://sodipodi.sourceforge.net/DTD/sodipodi-0.dtd"
   xmlns:inkscape="http://www.inkscape.org/namespaces/inkscape"
   width="200"
   height="200"
   viewBox="0 0 52.916665 52.916668"
   version="1.1"
   id="svg8"
   inkscape:version="0.92.2 (5c3e80d, 2017-08-06)"
   sodipodi:docname="rpi.svg">
  <defs
     id="defs2" />
  <sodipodi:namedview
     id="base"
     pagecolor="#ffffff"
     bordercolor="#666666"
     borderopacity="1.0"
     inkscape:pageopacity="0.0"
     inkscape:pageshadow="2"
     inkscape:zoom="4"
     inkscape:cx="103.28584"
     inkscape:cy="99.342613"
     inkscape:document-units="mm"
     inkscape:current-layer="layer1"
     showgrid="false"
     units="px"
     inkscape:window-width="1920"
     inkscape:window-height="1137"
     inkscape:window-x="-8"
     inkscape:window-y="-8"
     inkscape:window-maximized="1" />
  <metadata
     id="metadata5">
    <rdf:RDF>
      <cc:Work
         rdf:about="">
        <dc:format>image/svg+xml</dc:format>
        <dc:type
           rdf:resource="http://purl.org/dc/dcmitype/StillImage" />
        <dc:title></dc:title>
      </cc:Work>
    </rdf:RDF>
  </metadata>
  <g
     inkscape:label="Calque 1"
     inkscape:groupmode="layer"
     id="layer1"
     transform="translate(0,-244.08332)">
    <g
       id="g868"
       transform="matrix(0.13011694,0,0,0.13011694,61.579693,222.66581)">
      <path
         sodipodi:nodetypes="ccccccccccccccccccc"
         inkscape:connector-curvature="0"
         id="path862"
         d="m -190.2959,285.5074 31.80507,-24.32152 17.63979,-24.05426 5.87993,-28.33057 0.53454,-17.90706 -26.32605,-9.75533 -36.08138,-6.41447 -37.55137,7.75082 -22.18337,14.69982 -10.55716,24.85607 -24.05425,-29.26602 -25.52425,-14.03165 -41.02586,-2.27179 -40.35769,11.09169 -8.15174,6.68173 8.15174,42.76313 21.5152,29.13239 27.6624,17.10523 c 56.86371,-1.08385 107.69731,0.70277 158.62445,2.27179 z"
         style="fill:#73a726;fill-opacity:1;stroke:#000000;stroke-width:0.26458332px;stroke-linecap:butt;stroke-linejoin:miter;stroke-opacity:1" />
      <g
         transform="translate(-4.25596,48.95679)"
         id="g860">
        <path
           style="fill:#ba0f40;fill-opacity:1;stroke:#000000;stroke-width:0.26458332px;stroke-linecap:butt;stroke-linejoin:miter;stroke-opacity:1"
           d="m -265.39864,512.68651 c 0,0 98.88973,-38.75408 114.65863,-64.41197 15.7689,-25.65786 34.74503,-91.1389 32.33961,-110.38231 -0.96584,-7.72672 -16.47458,-22.16871 -24.04132,-40.25522 -10.53802,-25.18864 -28.07624,-52.22003 -28.07624,-52.22003 l -98.62245,-23.51972 -80.98266,16.30344 -29.1324,22.71791 -9.88896,40.62497 -22.71791,30.20145 -1.33634,36.61593 24.05425,53.4539 14.96709,33.94323 52.65211,27.79604 31.00326,23.51972 z"
           id="path856"
           inkscape:connector-curvature="0"
           sodipodi:nodetypes="cssscccccccccccc" />
        <path
           inkscape:connector-curvature="0"
           id="path828"
           d="m -271.51621,517.83798 c -6.98216,-0.82971 -9.57048,-1.368 -14.76799,-3.07126 -4.24985,-1.39274 -10.29602,-4.22 -13.80701,-6.45636 -4.54889,-2.89748 -10.02411,-7.26938 -13.35155,-10.66104 -1.26089,-1.28524 -1.95139,-1.74771 -3.43959,-2.30365 -11.7575,-4.39237 -22.28527,-10.27703 -34.62948,-19.35663 -2.77601,-2.04187 -4.36665,-3.02723 -5.42396,-3.35999 -2.07128,-0.65194 -6.82331,-3.14212 -9.83042,-5.15139 -16.41953,-10.97118 -27.44313,-28.00776 -30.02093,-46.3963 -0.098,-0.69861 -1.0471,-3.67517 -2.1093,-6.61458 -3.2268,-8.92906 -5.2314,-15.56266 -6.2403,-20.64959 -0.2642,-1.33226 -0.5941,-1.90117 -2.3785,-4.10105 -7.2384,-8.9238 -11.7345,-18.942 -13.3771,-29.80629 -0.5294,-3.5014 -0.6048,-11.58445 -0.1407,-15.08125 0.9871,-7.43765 2.9433,-13.87736 6.28,-20.67299 4.06,-8.26913 10.2799,-16.05914 16.5218,-20.69275 1.2257,-0.90988 2.5858,-1.92835 3.0223,-2.26327 0.4366,-0.33491 1.4189,-1.74244 2.1828,-3.12784 l 1.3891,-2.5189 v -2.87879 c 0.01,-6.11375 0.9533,-13.38372 2.5265,-19.3848 3.8434,-14.66087 11.7108,-25.37193 25.52681,-34.75351 1.8134,-1.23137 4.16577,-2.74987 5.22751,-3.37446 1.19556,-0.70331 1.9006,-1.2824 1.85208,-1.52121 -0.0484,-0.23818 -1.1486,-0.7094 -2.87789,-1.23258 -5.31414,-1.60777 -7.51143,-3.12789 -9.0941,-6.29146 -0.51625,-1.03193 -0.93864,-2.02425 -0.93864,-2.20516 0,-0.54019 -0.70431,-0.96594 -2.72044,-1.6445 -5.41163,-1.82136 -8.59263,-4.66413 -9.85083,-8.8034 -0.7783,-2.56042 -0.914,-2.7474 -3.0724,-4.23333 -2.5298,-1.74156 -5.6455,-4.91867 -6.6388,-6.76972 -0.8632,-1.6087 -1.53,-4.03841 -1.53,-5.57521 0,-1.05865 -0.1307,-1.25128 -2.341,-3.45014 -3.3649,-3.3475 -4.4193,-5.97241 -4.0829,-10.16377 l 0.1403,-1.74784 -1.4797,-1.94223 c -3.5786,-4.69698 -4.6336,-8.67325 -3.2071,-12.08722 0.3957,-0.94714 0.3923,-0.95894 -0.7947,-2.72814 -1.7493,-2.60726 -2.3076,-4.0548 -2.4567,-6.36923 -0.1518,-2.35808 0.2465,-3.82823 1.6844,-6.21603 1.0396,-1.72641 1.0437,-1.97678 0.074,-4.4661 -0.8968,-2.30187 -0.8974,-6.28457 0,-8.27355 1.6275,-3.61212 6.522,-5.95417 11.5927,-5.54714 l 1.7026,0.13667 1.6353,-1.62828 c 3.2467,-3.23296 6.7603,-4.44533 13.0467,-4.50187 l 4.00317,-0.036 1.24201,-1.14484 c 2.21303,-2.0399 5.17532,-2.8701 9.14843,-2.5639 l 2.2572,0.17395 1.78743,-1.1986 c 3.78807,-2.54017 7.74413,-2.85608 13.20538,-1.0545 l 2.04472,0.67452 1.55627,-0.96058 c 3.97135,-2.45126 6.2957,-2.35875 13.19254,0.52504 l 2.43407,1.01777 2.09756,-0.47907 c 1.48902,-0.34009 2.73086,-0.44241 4.28047,-0.35271 2.0394,0.11806 2.37639,0.22808 5.12566,1.67337 l 2.94275,1.54699 4.11291,0.0162 4.11291,0.0162 2.06294,1.01865 c 1.64192,0.81075 2.58081,1.53972 4.60049,3.57187 l 2.53755,2.55323 2.64251,-0.0833 2.6425,-0.0833 2.2041,1.49719 c 2.6422,1.79478 6.88,5.76507 9.12905,8.5528 4.75396,5.89258 8.66386,13.29399 11.76099,22.26352 0.74515,2.158 1.12389,1.92886 2.25598,-1.36486 2.71913,-7.91106 6.72968,-15.33375 11.3424,-20.99243 2.23569,-2.74263 6.44193,-6.66971 9.01608,-8.41769 l 2.2657,-1.53853 2.62721,0.0833 2.62722,0.0833 2.55526,-2.55442 c 2.02154,-2.02089 2.98564,-2.76694 4.61578,-3.57188 l 2.06052,-1.01745 4.11291,-0.0161 4.11291,-0.0161 2.94275,-1.547 c 2.74927,-1.44528 3.08626,-1.5553 5.12566,-1.67336 1.5426,-0.0893 2.79113,0.0125 4.25641,0.34721 2.33438,0.53316 1.76909,0.65805 7.19236,-1.58902 4.06693,-1.68509 7.07204,-1.56357 10.35902,0.4189 l 1.71696,1.03555 1.95614,-0.63855 c 5.50014,-1.79543 9.55784,-1.47415 13.33012,1.05544 l 1.78743,1.1986 2.2572,-0.17396 c 3.97311,-0.30619 6.9354,0.52401 9.14843,2.5639 l 1.24201,1.14485 4.00317,0.036 c 6.24727,0.0562 9.82763,1.28189 12.93167,4.42702 l 1.52599,1.54619 2.97484,0.0713 c 4.75334,0.11397 7.51692,1.28046 9.64565,4.07141 1.84944,2.42477 2.13812,6.21266 0.76173,9.99482 -0.37711,1.03625 -0.68566,2.07391 -0.68566,2.30592 0,0.232 0.35758,0.98569 0.79465,1.67486 2.63011,4.14725 2.48369,7.80038 -0.49895,12.45011 l -1.33157,2.07577 0.43778,1.18171 c 0.63801,1.72215 0.56327,4.7724 -0.1628,6.64424 -0.64035,1.65088 -2.27383,4.2975 -3.63308,5.88644 l -0.8813,1.03022 0.0214,2.80624 c 0.034,4.43089 -0.99439,6.6685 -4.53488,9.86772 -1.76922,1.59865 -1.84801,1.72091 -1.85047,2.87094 -0.003,1.61494 -0.65614,4.02225 -1.53263,5.65288 -1.01407,1.88654 -3.88321,4.82211 -6.60328,6.75613 l -2.3177,1.64793 -0.67837,2.16052 c -1.48664,4.73478 -4.0827,7.14475 -10.0104,9.29279 -1.22214,0.44288 -2.311,0.98383 -2.41967,1.20211 -0.10867,0.21828 -0.62943,1.31184 -1.15725,2.43012 -1.56508,3.31588 -3.67804,4.81122 -9.12851,6.46023 -1.72929,0.52318 -2.8295,0.9944 -2.87789,1.23258 -0.0485,0.23882 0.65651,0.8179 1.85208,1.52121 2.97271,1.74876 8.26462,5.40389 10.91605,7.53972 12.01086,9.67528 19.02931,22.24549 21.41958,38.36301 0.55665,3.75346 0.94202,8.54085 0.9452,11.74233 l 0.003,2.7465 1.38906,2.5189 c 0.76399,1.3854 1.74625,2.79293 2.18282,3.12784 0.43656,0.33492 1.80578,1.35806 3.0427,2.27365 7.96476,5.89561 15.44659,16.49073 19.39444,27.46474 7.45157,20.71335 3.72221,41.91625 -10.39511,59.10035 l -1.76686,2.15069 -0.83778,3.70417 c -1.12339,4.96699 -2.52513,9.53465 -5.33482,17.38407 -1.46865,4.103 -2.45993,7.32002 -2.65213,8.60685 -0.85727,5.74032 -3.31935,13.37908 -6.10174,18.93107 -5.31826,10.61212 -13.65266,19.92296 -23.91131,26.71273 -3.30244,2.18575 -8.02933,4.65378 -10.06343,5.25436 -0.73131,0.21595 -2.69049,1.45573 -5.09368,3.22339 -12.37443,9.1019 -22.80529,14.93118 -34.60686,19.34001 -1.48819,0.55594 -2.17869,1.01841 -3.43958,2.30365 -3.53733,3.60561 -9.37012,8.22269 -13.78688,10.91332 -7.51658,4.57898 -15.22732,7.40952 -23.90634,8.77578 -2.65974,0.4187 -13.64611,0.76441 -15.87501,0.49956 z m 12.32,-12.15128 c 9.22701,-1.37009 19.50815,-6.22223 27.67586,-13.06153 7.43062,-6.22207 10.98392,-12.42639 9.35269,-16.33048 -2.3935,-5.72847 -15.19316,-10.82651 -31.48916,-12.54199 -3.53855,-0.37248 -15.87308,-0.36698 -19.70672,0.009 -15.87841,1.55647 -30.64469,6.87496 -35.33021,12.72516 -1.13285,1.41447 -1.83774,3.60701 -1.58785,4.93906 0.66785,3.55994 5.60876,9.22425 12.13525,13.912 7.35012,5.27934 16.26356,9.08273 24.24889,10.34706 3.17546,0.50279 11.32082,0.50385 14.70125,0.003 z m 65.67637,-39.29153 c 14.49983,-1.54665 28.99697,-11.35864 39.09491,-26.46029 3.95902,-5.92077 6.42255,-13.1514 7.28192,-21.37296 0.4513,-4.31768 0.18764,-12.29093 -0.54322,-16.42806 -1.26256,-7.14669 -3.80671,-13.39498 -6.58119,-16.16311 -5.61903,-5.60613 -15.3967,-4.83208 -25.83524,2.04526 -6.31068,4.15774 -15.81937,12.9993 -21.1188,19.63711 -5.3415,6.69049 -10.10601,16.09529 -12.73237,25.13283 -3.79127,13.0461 -3.08378,24.19207 1.85347,29.20007 3.37909,3.4275 10.94711,5.22338 18.58052,4.40915 z m -136.63446,-1.47791 c 5.44976,-1.03118 8.25259,-2.97947 10.20862,-7.0962 5.29944,-11.15335 -0.7481,-34.16594 -12.48479,-47.50808 -11.77547,-13.38625 -25.80066,-21.71161 -36.54183,-21.69123 -8.48994,0.0161 -13.13204,3.79904 -15.41634,12.5631 -0.5779,2.21697 -0.7122,3.42583 -0.8288,7.45794 -0.1539,5.32517 0.1058,8.2372 1.1637,13.04727 1.2017,5.46351 3.1379,10.87501 5.766,16.11535 3.395,6.76944 11.08363,14.97907 18.66528,19.93008 9.66045,6.30852 20.33468,8.90998 29.46816,7.18177 z m 74.63091,-14.90363 c 19.9755,-4.01 34.40882,-19.13853 36.13233,-37.87281 0.83949,-9.12495 -1.53112,-18.10535 -6.91138,-26.182 -2.4493,-3.67678 -7.7087,-8.85678 -11.61987,-11.44445 -14.32644,-9.4785 -32.3605,-10.73333 -47.8814,-3.33164 -8.49967,4.05338 -16.12779,11.3696 -20.10797,19.28578 -2.4727,4.91795 -3.77133,9.42883 -4.26255,14.80622 -0.94976,10.39704 2.43664,20.91274 9.43805,29.30782 6.48384,7.77446 16.36196,13.463 26.7329,15.39478 4.11783,0.76702 4.1807,0.77128 10.16,0.69072 4.31306,-0.0581 6.01708,-0.19214 8.31989,-0.65442 z m -134.86765,-64.03036 c 1.4524,-0.65937 3.2219,-2.45039 4.7412,-4.79904 8.1691,-12.62815 13.56496,-45.60231 10.1547,-62.0552 -1.3939,-6.72465 -4.0117,-10.15147 -7.7548,-10.15147 -1.234,0 -1.7099,0.17218 -3.5757,1.29354 -8.5694,5.15032 -15.5315,13.37581 -19.2088,22.69448 -5.7269,14.5122 -3.8895,32.71192 4.5961,45.5275 1.8304,2.76449 5.6583,6.93131 6.9545,7.5702 1.1522,0.56801 2.7335,0.5371 4.0928,-0.08 z m 249.24246,-0.94615 c 0.53313,-0.22278 1.86878,-1.33313 2.96807,-2.46748 8.61755,-8.89244 13.31457,-23.74194 11.90797,-37.64686 -1.47461,-14.57718 -8.67905,-26.62046 -20.81321,-34.79235 -3.08886,-2.08023 -4.3374,-2.56873 -5.89712,-2.30729 -1.28794,0.21588 -2.96725,1.22868 -3.75687,2.26579 -2.66247,3.4969 -3.87845,8.80839 -4.10681,17.93863 -0.24489,9.79217 0.83013,19.95011 3.23411,30.55937 4.21106,18.58438 10.62551,28.88959 16.46386,26.45019 z m -175.86145,-10.448 c 7.64669,-1.23873 15.90231,-5.0945 22.54599,-10.53003 2.62904,-2.15096 7.11173,-6.84695 9.22287,-9.66173 9.36112,-12.48118 13.12872,-28.39345 9.97112,-42.11251 -3.17421,-13.79123 -12.51946,-23.99799 -25.35033,-27.68728 -3.22428,-0.92709 -6.365,-1.32823 -10.31875,-1.31794 -24.18482,0.063 -46.04446,20.9351 -49.49658,47.2606 -0.45695,3.48462 -0.17141,11.20476 0.53618,14.49684 2.25042,10.4702 7.64451,18.84321 15.50732,24.07136 8.17246,5.43404 16.89408,7.17972 27.38218,5.48069 z m 117.98966,-2.46778 c 14.11213,-3.30403 24.27387,-13.94581 27.47984,-28.778 3.43717,-15.90177 -2.2844,-34.079 -14.76126,-46.89602 -4.70345,-4.83168 -9.00265,-7.98244 -14.70295,-10.77538 -20.45995,-10.02461 -42.38528,-3.53393 -51.85154,15.3499 -5.09181,10.15745 -5.66714,22.81151 -1.59626,35.10868 6.35461,19.19578 22.43103,33.39923 41.28422,36.47443 3.63981,0.5937 10.55638,0.35727 14.14795,-0.48361 z m 41.72506,-75.71231 c 1.00348,-0.70288 1.23007,-2.01942 1.04524,-6.07324 -0.30486,-6.68527 -1.09562,-11.33435 -2.82223,-16.5925 -6.22529,-18.95811 -21.9491,-30.97413 -43.25536,-33.05544 -5.31221,-0.51892 -16.0668,0.12619 -17.82938,1.06949 -2.98449,1.59726 1.35241,8.2887 12.79424,19.74034 8.24795,8.25501 17.09545,15.96178 26.20181,22.82352 12.5992,9.49364 21.28702,13.89398 23.86568,12.08783 z m -216.39672,-1.33895 c 8.84676,-2.95462 28.90625,-18.18753 44.92359,-34.11439 7.31571,-7.27439 11.15527,-11.79988 13.14711,-15.4958 1.13701,-2.10976 1.36005,-3.02881 0.96595,-3.98026 -0.3963,-0.95675 -1.14705,-1.19088 -5.41025,-1.68722 -11.53289,-1.34271 -22.90029,0.42261 -32.28079,5.0131 -17.02469,8.33128 -26.69432,24.63765 -26.91062,45.38062 l -0.042,4.04916 0.8468,0.75655 c 1.0748,0.96036 2.0702,0.97672 4.76043,0.0782 z m 120.79428,-15.97996 c 10.82884,-1.65733 18.91354,-5.05554 23.8156,-10.01032 3.95621,-3.99875 5.48431,-8.27945 4.55298,-12.75432 -2.1046,-10.11219 -16.29946,-20.56451 -32.56724,-23.98074 -3.10218,-0.65146 -3.98461,-0.72334 -8.99583,-0.73273 -5.92289,-0.0111 -7.77681,0.21622 -12.82828,1.57292 -8.51627,2.28727 -17.4791,7.56754 -23.0593,13.58492 -2.15011,2.31856 -3.38068,4.19498 -4.39024,6.6944 -0.58649,1.452 -0.65121,1.92523 -0.53479,3.91022 0.2216,3.77825 1.88078,7.00339 5.40186,10.50026 5.82965,5.78956 16.36091,10.19928 27.34095,11.44837 1.38245,0.15727 2.87073,0.33537 3.30729,0.39579 0.43657,0.0604 3.82985,0.07 7.54063,0.0213 5.19422,-0.0681 7.59134,-0.21775 10.41637,-0.65012 z M -329.615,230.23936 c 7.05844,-0.77769 13.65323,-2.52689 18.90345,-5.01394 7.52234,-3.56337 13.29109,-9.46239 15.88117,-16.2398 1.3764,-3.6016 1.42456,-3.33457 -1.07971,-5.98557 -11.15415,-11.80761 -32.26252,-26.37418 -59.21445,-40.86297 -6.0384,-3.24611 -6.92349,-3.75131 -6.79584,-3.87895 0.18799,-0.18799 8.90547,3.03492 15.04284,5.56144 22.50698,9.26523 41.01509,19.94518 58.0729,33.5105 l 1.36469,1.08527 1.41343,-0.71385 c 7.17275,-3.62261 11.32358,-9.66281 12.00277,-17.4662 0.71494,-8.21414 -3.80169,-20.15747 -11.47699,-30.3486 -2.68052,-3.55915 -5.88264,-7.10199 -6.33808,-7.01249 -0.23872,0.0469 -0.58841,0.78927 -0.88902,1.88735 -0.53749,1.96333 -1.16286,3.34935 -1.51121,3.34935 -0.12081,0 -1.21908,-1.15317 -2.4406,-2.56261 -5.33025,-6.15026 -9.79207,-10.57787 -10.32665,-10.24748 -0.17147,0.10597 -0.20797,0.73601 -0.0977,1.68619 0.21855,1.8831 -0.17167,3.41952 -1.10573,4.35358 l -0.70884,0.70885 -2.36308,-2.53448 c -3.1091,-3.33463 -8.5248,-7.55324 -9.17817,-7.14943 -0.13714,0.0848 -0.076,0.61509 0.14213,1.23342 0.21049,0.59661 0.38272,1.46318 0.38272,1.92571 0,0.95774 -1.38224,3.32583 -1.94126,3.32583 -0.20098,0 -1.36447,-0.83521 -2.58552,-1.85602 -2.96328,-2.47734 -5.6747,-4.27625 -8.62617,-5.7231 -3.1799,-1.55884 -3.62227,-1.47493 -2.20715,0.41862 1.11866,1.49688 1.67027,2.91468 1.4296,3.67451 -0.32294,1.01957 -0.73473,1.63391 -1.09522,1.63391 -0.21132,0 -1.4171,-0.59611 -2.6795,-1.32469 -3.14069,-1.8126 -6.16239,-3.05122 -10.05499,-4.12164 -3.19746,-0.87926 -4.51896,-1.09105 -4.51896,-0.72423 0,0.0987 0.88529,1.08915 1.96731,2.20103 2.05107,2.10767 2.51339,3.01295 2.01463,3.94489 -0.37622,0.70297 -0.56284,0.69562 -2.94341,-0.11591 -4.68199,-1.5961 -13.36099,-3.51254 -13.82447,-3.05265 -0.12003,0.11909 0.31398,0.71537 0.96448,1.32506 0.65048,0.60969 1.46307,1.63739 1.80573,2.28377 0.58265,1.09909 0.59635,1.22228 0.21144,1.90116 -0.52198,0.92063 -0.78785,0.90677 -5.27696,-0.27524 -4.33115,-1.14042 -8.34355,-1.64216 -11.22935,-1.40418 -2.3392,0.19291 -4.1165,0.58853 -4.1165,0.91633 0,0.11571 0.8954,1.17417 1.9897,2.35213 1.4272,1.53621 1.8947,2.20264 1.6537,2.35714 -0.1849,0.11846 -4.0866,0.25654 -8.6705,0.30685 -4.5839,0.0503 -8.435,0.18761 -8.5581,0.30513 -0.1231,0.11753 0.499,1.28868 1.3825,2.60258 2.6234,3.90156 5.059,9.24964 5.059,11.10854 v 0.64963 l -3.5974,-0.12201 c -2.7348,-0.0927 -3.6279,-0.0423 -3.7249,0.21035 -0.1585,0.41291 1.4311,2.9434 3.0393,4.83837 0.6646,0.78313 2.4672,2.47533 4.0057,3.76044 3.0609,2.55669 3.9581,3.67884 3.3469,4.18607 -0.2004,0.16631 -1.0028,0.43576 -1.7831,0.59878 -1.1507,0.24038 -1.8173,0.2149 -3.5275,-0.13483 -1.1597,-0.23716 -2.2056,-0.3342 -2.3242,-0.21563 -0.4964,0.49647 2.2146,3.81932 6.7235,8.24068 2.597,2.54661 4.7217,4.72245 4.7214,4.83519 -0.001,0.45882 -1.5932,0.77049 -3.8982,0.76317 -1.3433,-0.004 -2.5027,0.0899 -2.5764,0.20919 -0.3668,0.5934 7.3476,7.2425 11.8319,10.198 0.8367,0.55148 1.5213,1.15457 1.5213,1.34019 0,0.45534 -2.2472,0.91051 -4.4953,0.91051 -1.118,0 -1.8983,0.12106 -2.0169,0.31291 -0.2559,0.41407 1.7416,2.20644 4.5171,4.05317 1.2018,0.79965 4.42954,2.63045 7.17275,4.06845 2.74322,1.43799 5.02659,2.73131 5.07417,2.87404 0.15732,0.47198 -2.52279,1.39343 -4.55176,1.56494 -1.09774,0.0928 -1.99589,0.2579 -1.99589,0.3669 0,0.31922 2.36083,1.74341 4.63866,2.79829 1.15952,0.53698 4.54486,1.77899 7.52299,2.76003 2.97813,0.98103 5.46144,1.92366 5.51846,2.09473 0.23173,0.69518 -1.26837,1.75639 -3.7521,2.65435 -1.15537,0.41771 -0.50994,0.92614 2.3078,1.8179 2.70017,0.85456 4.97397,1.21641 10.22252,1.62682 4.17426,0.3264 6.19711,0.68256 6.59422,1.16105 0.42773,0.51538 -0.64734,1.94143 -2.36829,3.14149 -0.79629,0.55527 -1.48553,1.11702 -1.53164,1.24834 -0.19471,0.55452 7.95508,0.46036 13.55483,-0.15662 z m 141.21678,0.42154 c 0.56074,0 1.01952,-0.10665 1.01952,-0.237 0,-0.13035 -0.60199,-0.6233 -1.33775,-1.09544 -1.5332,-0.98385 -2.71636,-2.39456 -2.58413,-3.08114 0.1239,-0.64338 2.03883,-1.0369 6.81377,-1.40026 4.18373,-0.31836 6.41719,-0.63142 8.88207,-1.24499 2.06801,-0.51477 4.14383,-1.41175 4.03345,-1.74289 -0.0479,-0.14381 -0.70105,-0.49047 -1.45136,-0.77036 -2.01506,-0.75169 -3.63169,-2.41135 -2.64824,-2.71873 6.33084,-1.97868 10.94681,-3.61422 13.10444,-4.64321 2.77657,-1.32416 4.29192,-2.25156 4.29192,-2.62667 0,-0.11554 -0.92274,-0.29366 -2.05052,-0.39582 -1.9667,-0.17815 -4.04557,-0.84984 -4.39872,-1.42125 -0.0962,-0.15566 1.83226,-1.30563 4.52992,-2.70125 6.68647,-3.45922 12.48913,-7.42886 12.1502,-8.31206 -0.0913,-0.23792 -0.93726,-0.38314 -2.73672,-0.46979 -2.41631,-0.11635 -3.79,-0.46686 -3.79,-0.96705 0,-0.11397 1.16086,-0.99562 2.57969,-1.95922 4.4001,-2.98836 10.91708,-8.58766 10.91494,-9.37796 0,-0.22661 -0.74351,-0.31599 -2.58056,-0.31048 -2.40702,0.007 -4.0349,-0.29185 -4.0349,-0.74126 0,-0.10583 2.23647,-2.40073 4.96991,-5.09978 3.30181,-3.26022 5.26788,-5.42045 5.85758,-6.43605 0.48824,-0.84079 0.8251,-1.59128 0.74861,-1.66777 -0.0765,-0.0765 -1.11728,0.0591 -2.31288,0.3014 -2.93306,0.59431 -5.55905,0.13784 -5.55905,-0.96632 0,-0.25804 0.97422,-1.34026 2.16492,-2.40493 4.43175,-3.96265 5.85425,-5.42428 7.11997,-7.31574 1.95484,-2.92133 1.98382,-2.88631 -2.26857,-2.74209 -4.28712,0.1454 -4.2423,0.18685 -3.18428,-2.94564 0.97933,-2.8996 2.22183,-5.34217 4.30323,-8.45945 1.00203,-1.50078 1.6319,-2.68953 1.49466,-2.82093 -0.13049,-0.1249 -3.98769,-0.26825 -8.5716,-0.31855 -4.58391,-0.0503 -8.49559,-0.19455 -8.69262,-0.32055 -0.26937,-0.17226 0.15004,-0.74037 1.69077,-2.29018 1.34178,-1.3497 1.9962,-2.19872 1.896,-2.45984 -0.20545,-0.53537 -2.49902,-0.84204 -6.13894,-0.82083 -3.44038,0.02 -5.43153,0.33759 -10.01574,1.59731 -1.87063,0.51404 -3.56906,0.87018 -3.77428,0.79143 -0.20522,-0.0788 -0.48963,-0.44959 -0.63201,-0.82408 -0.37462,-0.98534 0.19894,-2.1511 1.86547,-3.79156 0.84758,-0.83432 1.3048,-1.47407 1.15781,-1.62004 -0.48766,-0.48426 -9.0162,1.38041 -13.84916,3.02797 -2.42515,0.82673 -2.50919,0.82666 -2.88689,-0.002 -0.45356,-0.99547 0.11747,-2.06649 2.17679,-4.08285 0.96175,-0.94168 1.74863,-1.80488 1.74863,-1.91823 0,-0.37708 -1.16174,-0.21302 -4.13438,0.58387 -3.75179,1.00575 -7.33442,2.47026 -10.27078,4.1985 -1.27233,0.74886 -2.47798,1.36156 -2.67923,1.36156 -0.20125,0 -0.56247,-0.29999 -0.80271,-0.66664 -0.71514,-1.09145 -0.36999,-2.77018 0.92114,-4.48028 0.60003,-0.79473 1.09096,-1.5096 1.09096,-1.5886 0,-0.67476 -4.28081,1.31905 -7.58551,3.53299 -1.285,0.86087 -3.25497,2.35033 -4.37772,3.30992 -1.12274,0.95958 -2.20788,1.7447 -2.41141,1.7447 -0.52972,0 -1.76172,-1.88288 -1.92377,-2.94011 -0.0756,-0.493 0.0439,-1.48611 0.2656,-2.20693 0.22164,-0.72081 0.35113,-1.36243 0.28775,-1.42581 -0.19872,-0.19872 -2.99901,1.60875 -5.11351,3.30055 -1.85771,1.48634 -3.73824,3.34401 -5.69575,5.62651 l -0.75746,0.8832 -0.7821,-0.78209 c -0.94626,-0.94627 -1.26965,-2.224 -1.08323,-4.27989 0.0904,-0.99743 0.0349,-1.60729 -0.1571,-1.72597 -0.41072,-0.25384 -4.92466,4.17357 -9.09135,8.91705 -2.84942,3.24386 -3.50117,3.85698 -3.81931,3.59294 -0.48598,-0.40333 -0.9712,-1.56331 -1.39623,-3.33787 -0.1831,-0.76444 -0.45139,-1.46312 -0.59622,-1.55262 -0.36539,-0.22583 -2.50408,1.91743 -5.04838,5.05916 -6.12498,7.5632 -10.80623,16.85086 -12.38254,24.56716 -0.6942,3.39824 -0.74281,8.18344 -0.11191,11.0193 0.90772,4.08023 3.32705,7.98808 6.80609,10.99361 1.33593,1.1541 5.56304,3.82306 6.05499,3.82306 0.10057,0 1.11748,-0.75446 2.25981,-1.67657 17.48055,-14.11061 40.27058,-26.67546 65.5231,-36.12491 3.08557,-1.15461 5.90778,-2.17653 6.27158,-2.27094 0.64506,-0.1674 0.64834,-0.16117 0.13229,0.25131 -0.29104,0.23263 -1.89838,1.14918 -3.57187,2.03678 -20.9192,11.09533 -39.10188,22.64343 -51.32917,32.59996 -3.85784,3.14139 -9.62664,8.46341 -11.37182,10.4911 l -1.56856,1.82248 0.41087,1.39633 c 3.21323,10.92008 13.01884,18.76681 27.51803,22.02069 5.55733,1.24717 13.98626,2.11274 17.92477,1.8407 0.85809,-0.0593 2.01895,-0.10777 2.57969,-0.10777 z"
           style="fill:#010000;stroke-width:0.26458335" />
      </g>
    </g>
  </g>
</svg>
