<?xml version="1.0" encoding="UTF-8" standalone="no"?>
<!-- Created with Inkscape (http://www.inkscape.org/) -->

<svg
   xmlns:dc="http://purl.org/dc/elements/1.1/"
   xmlns:cc="http://creativecommons.org/ns#"
   xmlns:rdf="http://www.w3.org/1999/02/22-rdf-syntax-ns#"
   xmlns:svg="http://www.w3.org/2000/svg"
   xmlns="http://www.w3.org/2000/svg"
   xmlns:sodipodi="http://sodipodi.sourceforge.net/DTD/sodipodi-0.dtd"
   xmlns:inkscape="http://www.inkscape.org/namespaces/inkscape"
   width="500"
   height="500"
   viewBox="0 0 132.29167 132.29167"
   version="1.1"
   id="svg8"
   inkscape:version="0.92.2 (5c3e80d, 2017-08-06)"
   sodipodi:docname="scriptIcon.svg">
  <defs
     id="defs2" />
  <sodipodi:namedview
     id="base"
     pagecolor="#ffffff"
     bordercolor="#666666"
     borderopacity="1.0"
     inkscape:pageopacity="0.0"
     inkscape:pageshadow="2"
     inkscape:zoom="1.4"
     inkscape:cx="330.10435"
     inkscape:cy="279.35234"
     inkscape:document-units="mm"
     inkscape:current-layer="layer1"
     showgrid="false"
     units="px"
     width="49px"
     inkscape:window-width="1920"
     inkscape:window-height="1137"
     inkscape:window-x="-8"
     inkscape:window-y="-8"
     inkscape:window-maximized="1" />
  <metadata
     id="metadata5">
    <rdf:RDF>
      <cc:Work
         rdf:about="">
        <dc:format>image/svg+xml</dc:format>
        <dc:type
           rdf:resource="http://purl.org/dc/dcmitype/StillImage" />
        <dc:title></dc:title>
      </cc:Work>
    </rdf:RDF>
  </metadata>
  <g
     inkscape:label="Calque 1"
     inkscape:groupmode="layer"
     id="layer1"
     transform="translate(0,-164.70833)">
    <path
       style="fill:#000000;stroke-width:0.15595278"
       d="m 37.177908,286.10418 c -2.80657,-0.38787 -6.28401,-1.89778 -8.74706,-3.79801 -2.71964,-2.09819 -5.10937,-5.47472 -6.20087,-8.76143 -0.93658,-2.8202 -0.88127,-0.14119 -0.88127,-42.69241 0,-42.56268 -0.0555,-39.8812 0.88367,-42.6924 0.88486,-2.64861 2.43885,-5.11568 4.55521,-7.23172 2.17,-2.16967 4.56213,-3.6405 7.46261,-4.58848 2.67623,-0.87468 2.41628,-0.86596 24.29325,-0.81553 l 20.11791,0.0464 1.16535,0.35931 c 1.50801,0.46496 3.41644,1.43176 4.51457,2.28706 0.47855,0.37273 6.03501,5.85909 12.3477,12.19192 11.787432,11.82506 12.343712,12.43489 13.277312,14.55532 0.2077,0.47175 0.51257,1.34898 0.67747,1.9494 0.29116,1.06015 0.29982,1.99431 0.29982,32.3602 0,29.74067 -0.0139,31.32568 -0.28468,32.43818 -0.31563,1.2968 -1.0321,3.24952 -1.63078,4.44465 -2.03626,4.06493 -6.20354,7.64962 -10.578862,9.09991 -3.07006,1.01763 -1.12311,0.96141 -32.39832,0.93568 -15.62284,-0.0129 -28.6157,-0.0525 -28.87303,-0.088 z m 57.39063,-5.88324 c 2.83131,-0.50823 5.12256,-1.70917 7.050312,-3.69536 1.11668,-1.15055 1.71399,-2.01818 2.399,-3.48476 1.16608,-2.49654 1.07769,0.27328 1.07581,-33.71157 -0.002,-33.46514 0.0633,-31.14701 -0.92349,-32.85924 -0.32127,-0.55746 -4.017,-4.3463 -12.050392,-12.35403 -12.55534,-12.51524 -12.1574,-12.16498 -14.35764,-12.63706 -1.25642,-0.26958 -37.81976,-0.3195 -39.61864,-0.0541 -5.51761,0.81407 -9.85417,4.9729 -10.80416,10.36134 -0.32913,1.86688 -0.32933,76.52498 -1.5e-4,78.23557 0.9958,5.17564 5.1841,9.31948 10.30662,10.19724 0.81731,0.14005 7.95098,0.19194 28.38341,0.20648 23.09747,0.0164 27.48348,-0.015 28.53936,-0.20453 z m -33.39934,-32.44997 c -1.25026,-0.74942 -1.58609,-2.19198 -0.985,-4.23105 0.66618,-2.25986 1.03473,-3.48612 2.64139,-8.78877 0.32487,-1.07218 0.73381,-2.44066 0.90878,-3.04108 0.17496,-0.60042 0.87869,-2.95141 1.56384,-5.22442 0.68515,-2.27301 1.3952,-4.63867 1.57788,-5.25704 0.3751,-1.26969 0.86745,-1.94649 1.73971,-2.39148 1.48626,-0.75823 3.27166,-0.0358 3.95512,1.60034 0.33152,0.79363 0.30942,1.05957 -0.23697,2.85115 -0.26158,0.85774 -0.7448,2.47185 -1.07382,3.58691 -0.32901,1.11507 -1.38246,4.62401 -2.341,7.79764 -0.95853,3.17364 -1.94467,6.47754 -2.19142,7.34201 -0.82561,2.89237 -1.43055,4.6419 -1.75837,5.0853 -0.7824,1.05825 -2.61407,1.38143 -3.80014,0.67049 z m -10.65733,-2.25604 c -0.3002,-0.1623 -0.79412,-0.56272 -1.09759,-0.88984 -1.82682,-1.96916 -3.37012,-3.6085 -4.81902,-5.11893 -2.29665,-2.39415 -4.10781,-4.4032 -4.33175,-4.80502 -0.10418,-0.18693 -0.18942,-0.79604 -0.18942,-1.35357 0,-0.55753 0.0852,-1.16663 0.18942,-1.35356 0.19392,-0.34795 1.71285,-2.05649 3.93151,-4.42226 0.68662,-0.73214 1.47458,-1.59645 1.75102,-1.92069 1.31174,-1.53851 4.21854,-4.52214 4.59572,-4.71718 0.51697,-0.26734 1.98172,-0.28559 2.57499,-0.0321 0.6153,0.26292 1.23357,0.95158 1.45403,1.61958 0.26645,0.80735 0.11595,1.9945 -0.33245,2.62232 -0.36437,0.51017 -2.22262,2.57535 -4.43501,4.92888 -2.0311,2.16067 -2.7224,2.98666 -2.7224,3.25282 0,0.31085 0.06,0.37912 4.03504,4.59082 1.68344,1.78366 3.19712,3.49825 3.36371,3.81018 0.63917,1.19675 0.23829,2.82418 -0.89851,3.64768 -0.52679,0.38161 -0.76494,0.44869 -1.57214,0.44284 -0.6259,-0.005 -1.13802,-0.10783 -1.49715,-0.30197 z m 28.85127,0.13409 c -0.49818,-0.19807 -1.21259,-0.87451 -1.49547,-1.41599 -0.12101,-0.23162 -0.21975,-0.82814 -0.21943,-1.3256 5.3e-4,-0.98537 0.19833,-1.40748 1.14291,-2.44035 1.1918,-1.30318 5.05812,-5.50226 5.75438,-6.24964 0.40575,-0.43554 0.73909,-0.92218 0.74077,-1.08143 0.002,-0.15924 -0.47332,-0.79085 -1.05555,-1.40357 -4.51187,-4.74819 -6.23084,-6.6324 -6.39396,-7.00859 -0.44071,-1.01644 -0.12624,-2.48672 0.69483,-3.24862 0.65245,-0.60544 1.03728,-0.75983 1.89389,-0.75983 1.089,0 1.69724,0.30667 2.67901,1.35073 0.47093,0.50082 1.44982,1.54219 2.1753,2.31416 0.72548,0.77196 2.02446,2.1424 2.88662,3.04541 3.32353,3.48101 3.93039,4.18948 4.11423,4.80308 0.24013,0.80148 0.23024,1.17052 -0.0493,1.83953 -0.31222,0.74725 -0.64975,1.13812 -5.30453,6.14274 -2.31071,2.48438 -4.06348,4.41963 -4.27037,4.71494 -0.50521,0.72112 -2.30455,1.11615 -3.29334,0.72303 z"
       id="path4528"
       inkscape:connector-curvature="0" />
  </g>
</svg>
